<svg width="193" height="55" viewBox="0 0 193 55" fill="none" xmlns="http://www.w3.org/2000/svg">
<rect x="0.5" y="0.578125" width="191.969" height="53" rx="26.5" stroke="white"/>
<path d="M37.2905 21.8359H39.5059L36.313 31.0781H34.8467L35.1577 29.0278L37.2905 21.8359ZM35.3608 29.0278L35.6846 31.0781H34.2183L31.0317 21.8359H33.2471L35.3608 29.0278ZM43.7448 31.0781H41.7517V21.8359H43.7448V31.0781ZM52.9984 31.0781H48.1171V29.4722H52.9984V31.0781ZM48.7582 31.0781H46.7587V21.8359H48.7582V31.0781ZM52.3637 27.1045H48.1171V25.5493H52.3637V27.1045ZM52.9921 23.4482H48.1171V21.8359H52.9921V23.4482ZM59.421 21.8359H60.4874L60.773 22.9214L58.8307 31.0781H57.6754L57.5992 29.853L59.421 21.8359ZM58.2721 29.8721L58.088 31.0781H56.8121L54.7809 21.8359H56.7677L58.2721 29.8721ZM63.7564 21.8359H65.7369L63.712 31.0781H62.4298L62.2711 29.8403L63.7564 21.8359ZM62.9439 29.8911L62.8487 31.0781H61.6935L59.7384 22.915L60.0494 21.8359H61.1031L62.9439 29.8911ZM75.1797 21.8359L77.4712 28.4312L79.7563 21.8359H81.4385L78.144 31.0781H76.7856L73.4976 21.8359H75.1797ZM74.2593 21.8359L74.5703 28.6851V31.0781H72.5708V21.8359H74.2593ZM82.3652 21.8359V31.0781H80.3657V28.6851L80.6704 21.8359H82.3652ZM92.9265 26.6475C92.9265 27.5954 92.7593 28.41 92.425 29.0913C92.0907 29.7684 91.6273 30.291 91.0349 30.6592C90.4424 31.0231 89.7569 31.2051 88.9782 31.2051C88.1996 31.2051 87.5098 31.0231 86.9089 30.6592C86.3122 30.291 85.8446 29.7684 85.5061 29.0913C85.1675 28.41 84.9982 27.5954 84.9982 26.6475V26.2729C84.9982 25.325 85.1654 24.5125 85.4997 23.8354C85.8382 23.1541 86.3059 22.6294 86.9025 22.2612C87.4992 21.8931 88.1869 21.709 88.9655 21.709C89.7442 21.709 90.4297 21.8931 91.0222 22.2612C91.6188 22.6294 92.0843 23.1541 92.4187 23.8354C92.7572 24.5125 92.9265 25.325 92.9265 26.2729V26.6475ZM90.9143 26.2603C90.9143 25.6255 90.8381 25.0923 90.6857 24.6606C90.5334 24.229 90.3112 23.9032 90.0192 23.6831C89.7272 23.4631 89.376 23.353 88.9655 23.353C88.5466 23.353 88.1932 23.4631 87.9055 23.6831C87.6177 23.9032 87.3977 24.229 87.2453 24.6606C87.0972 25.0923 87.0231 25.6255 87.0231 26.2603V26.6475C87.0231 27.278 87.0993 27.8112 87.2517 28.2471C87.404 28.6787 87.6241 29.0067 87.9118 29.231C88.2038 29.4552 88.5593 29.5674 88.9782 29.5674C89.3887 29.5674 89.7378 29.4552 90.0256 29.231C90.3176 29.0067 90.5376 28.6787 90.6857 28.2471C90.8381 27.8112 90.9143 27.278 90.9143 26.6475V26.2603ZM99.0443 21.8359C99.7595 21.8359 100.373 21.9438 100.885 22.1597C101.401 22.3713 101.797 22.6844 102.072 23.0991C102.347 23.5096 102.485 24.0195 102.485 24.6289C102.485 25.1367 102.4 25.5684 102.231 25.9238C102.066 26.2793 101.833 26.5734 101.533 26.8062C101.232 27.0389 100.879 27.2272 100.473 27.3711L99.8378 27.7329H96.8734L96.8607 26.1206H99.038C99.3596 26.1206 99.6283 26.0677 99.8441 25.9619C100.06 25.8519 100.221 25.6974 100.327 25.4985C100.432 25.2996 100.485 25.0648 100.485 24.7939C100.485 24.3792 100.367 24.0513 100.13 23.8101C99.897 23.5688 99.5352 23.4482 99.0443 23.4482H97.559V31.0781H95.5658V21.8359H99.0443ZM98.6 26.9712L100.707 26.9585L102.821 30.9829V31.0781H100.682L98.6 26.9712ZM111.427 31.0781H106.546V29.4722H111.427V31.0781ZM107.187 31.0781H105.188V21.8359H107.187V31.0781ZM110.793 27.1045H106.546V25.5493H110.793V27.1045ZM111.421 23.4482H106.546V21.8359H111.421V23.4482Z" fill="white"/>
<rect x="139.469" y="0.578125" width="53" height="53" rx="26.5" stroke="white"/>
<g clip-path="url(#clip0_5_26)">
<path d="M156.431 36.4663L174.991 17.9061" stroke="white" stroke-width="0.999746"/>
<path d="M161.801 18.1078L174.924 18.1063L174.922 31.2289" stroke="white" stroke-width="0.999746"/>
</g>
<defs>
<clipPath id="clip0_5_26">
<rect width="19.2657" height="26.7656" fill="white" transform="translate(163.309 43.3448) rotate(-135)"/>
</clipPath>
</defs>
</svg>
